<?xml version="1.0" encoding="UTF-8"?>
<svg id="Layer_1" data-name="Layer 1" xmlns="http://www.w3.org/2000/svg" width="400" height="258.83" xmlns:xlink="http://www.w3.org/1999/xlink" viewBox="0 0 400 258.83">
  <defs>
    <style>
      .cls-1 {
        mask: url(#mask);
      }

      .cls-2 {
        fill: url(#linear-gradient);
      }

      .cls-2, .cls-3, .cls-4 {
        stroke-width: 0px;
      }

      .cls-4 {
        fill: #fff;
      }
    </style>
    <linearGradient id="linear-gradient" x1="-256.67" y1="46.78" x2="-228.34" y2="46.78" gradientTransform="translate(460.88 75.36)" gradientUnits="userSpaceOnUse">
      <stop offset=".2" stop-color="#000"/>
      <stop offset="1" stop-color="#000" stop-opacity="0"/>
    </linearGradient>
    <mask id="mask" x="204.98" y="56.24" width="142.34" height="142.34" maskUnits="userSpaceOnUse">
      <g>
        <path class="cls-4" d="M336.42,82.87h-60.27l-15.17-15.17c-1.65-1.69-3.91-2.62-6.27-2.62h-38.83c-1.1,0-2,.9-2,2v33.65l.04,80.06h8.9l-.04-62.27v-17.79h31.9s17.79,17.79,17.79,17.79h57.06l-.04,31.14v22.24h-53.31s.04,8.9.04,8.9h60.16c1.1,0,2-.9,2-2v-24.69l.04-35.58v-33.65c0-1.1-.9-2-2-2ZM276.15,109.62l-17.21-17.21c-.38-.38-.88-.59-1.41-.59h-34.76v-17.86h31.94l17.79,17.79h57.02v17.86h-53.38Z"/>
        <rect class="cls-2" x="204.21" y="112.35" width="28.34" height="19.58" transform="translate(96.23 340.52) rotate(-90)"/>
        <rect class="cls-3" x="209.48" y="135.06" width="35.58" height="59.07"/>
      </g>
    </mask>
  </defs>
  <path id="Black" class="cls-3" d="M126.08,116.98l13.67,44.63c.09.29.04.62-.14.87l-38.53,54.68c-1.08,1.53-2.84,2.48-4.71,2.51C29.2,220.7-1.27,170.01.04,126.79,1.37,82.92,34.02,39.21,92.84,39.21c38.69,0,65.79,28.76,74.5,43.13,6.27,9.41,13.07,33.55,15.69,44.44,22.22,79.73,57.51,90.19,90.19,90.19,41.82,0,84.96-33.98,84.96-90.19-1.31-50.98-50.93-84.96-84.96-84.96s-62.02,12.73-84.11,53.25c-.38.7-1.4.72-1.78.02l-22.32-40.92c-.19-.36-.15-.79.1-1.11C192.47,19.41,225.06,0,273.22,0c77.12,0,126.78,69.27,126.78,126.79,0,99.34-86.27,132.01-126.78,132.01-49.15,1.05-82.35-27.45-92.8-41.83-18.82-19.87-34.85-68.4-40.52-90.19-6.27-35.55-33.98-45.31-47.05-45.75-36.6-1.05-49.23,30.06-50.98,45.75-.97,33.78,22.5,46.4,37.08,49.17,2.12.4,4.2-.6,5.44-2.36l39.92-56.9c.48-.68,1.53-.51,1.78.28Z"/>
  <g id="ClearCase">
    <g class="cls-1">
      <rect class="cls-3" x="204.98" y="56.24" width="142.34" height="142.34"/>
    </g>
    <path class="cls-3" d="M258.41,154.19h-4.45v-11.12c0-8.58-6.98-15.57-15.57-15.57s-15.57,6.98-15.57,15.57v11.12h-4.45c-2.46,0-4.45,1.99-4.45,4.45v26.69c0,2.46,1.99,4.45,4.45,4.45h40.03c2.46,0,4.45-1.99,4.45-4.45v-26.69c0-2.46-1.99-4.45-4.45-4.45ZM238.39,136.4c3.68,0,6.67,2.99,6.67,6.67v11.12h-13.34v-11.12c0-3.68,2.99-6.67,6.67-6.67ZM253.96,180.88h-31.14v-17.79h31.14v17.79Z"/>
  </g>
</svg>