<?xml version="1.0" encoding="UTF-8"?><svg id="Logos" xmlns="http://www.w3.org/2000/svg" xmlns:xlink="http://www.w3.org/1999/xlink" viewBox="0 0 714.33 714.33"><defs><style>.cls-1{fill:none;}.cls-2{fill:url(#linear-gradient);}.cls-3{fill:url(#linear-gradient-3);}.cls-4{fill:url(#linear-gradient-4);}.cls-5{fill:url(#linear-gradient-2);}</style><linearGradient id="linear-gradient" x1="176.48" y1="125.37" x2="405.16" y2="354.05" gradientUnits="userSpaceOnUse"><stop offset="0" stop-color="#00bded"/><stop offset=".16" stop-color="#00b6e8"/><stop offset=".38" stop-color="#00a5db"/><stop offset=".63" stop-color="#0088c6"/><stop offset=".9" stop-color="#0061a9"/><stop offset="1" stop-color="#00529e"/></linearGradient><linearGradient id="linear-gradient-2" x1="194.74" y1="145.42" x2="376.97" y2="327.65" gradientUnits="userSpaceOnUse"><stop offset=".26" stop-color="#00bded"/><stop offset=".39" stop-color="#00afe2"/><stop offset=".65" stop-color="#008bc8"/><stop offset="1" stop-color="#00529e"/></linearGradient><linearGradient id="linear-gradient-3" x1="6882.68" y1="-10598.48" x2="7111.55" y2="-10369.61" gradientTransform="translate(7389.89 -10017.08) rotate(-180)" xlink:href="#linear-gradient"/><linearGradient id="linear-gradient-4" x1="6900.98" y1="-10578.39" x2="7083.21" y2="-10396.16" gradientTransform="translate(7389.89 -10017.08) rotate(-180)" xlink:href="#linear-gradient-2"/></defs><rect class="cls-1" x="0" y="0" width="714.33" height="714.33"/><g><path class="cls-2" d="M395.72,102.09c-133.26,0-241.67,108.41-241.67,241.66l.15,9.61h62.59l.13-9.61c0-98.59,80.21-178.8,178.81-178.81h7.74v-62.86h-7.74Z"/><path class="cls-5" d="M395.72,200.53c-79.96,0-145.71,65.05-146.57,145.01l-.08,7.82h62.81l.12-7.61c.75-45.41,38.31-82.36,83.72-82.36h7.74v-62.86h-7.74Z"/><path class="cls-3" d="M287.92,604.64c133.26,0,241.67-108.41,241.67-241.66l-.15-9.61h-62.73v9.61c.01,98.59-80.19,178.8-178.79,178.81h-7.74v62.86h7.74Z"/><path class="cls-4" d="M287.92,506.2c79.96,0,145.71-65.05,146.57-145.01l.08-7.82h-62.81l-.12,7.61c-.75,45.41-38.31,82.36-83.72,82.36h-7.74v62.86h7.74Z"/></g></svg>