<?xml version="1.0" encoding="UTF-8"?><svg id="Logos" xmlns="http://www.w3.org/2000/svg" xmlns:xlink="http://www.w3.org/1999/xlink" viewBox="0 0 714.33 714.33"><defs><style>.cls-1{fill:none;}.cls-2{fill:url(#linear-gradient);}.cls-2,.cls-3,.cls-4,.cls-5{fill-rule:evenodd;}.cls-3{fill:url(#linear-gradient-3);}.cls-4{fill:url(#linear-gradient-2);}.cls-5{fill:url(#linear-gradient-4);}</style><linearGradient id="linear-gradient" x1="101.85" y1="490.25" x2="438.63" y2="490.25" gradientTransform="matrix(1, 0, 0, 1, 0, 0)" gradientUnits="userSpaceOnUse"><stop offset="0" stop-color="#14a1de"/><stop offset="1" stop-color="#01539b"/></linearGradient><linearGradient id="linear-gradient-2" x1="277.58" y1="326.21" x2="165.05" y2="447.96" xlink:href="#linear-gradient"/><linearGradient id="linear-gradient-3" x1="612.45" y1="224.09" x2="275.67" y2="224.09" xlink:href="#linear-gradient"/><linearGradient id="linear-gradient-4" x1="443.09" y1="387.14" x2="543.32" y2="266.81" xlink:href="#linear-gradient"/></defs><rect class="cls-1" x="0" y="0" width="714.33" height="714.33"/><g id="HCL_ZIE"><polygon class="cls-2" points="357.15 530.98 161.6 530.98 101.85 449.51 438.63 449.51 357.15 530.98"/><polygon class="cls-4" points="226.78 324.57 340.85 324.57 221.35 449.51 101.85 449.51 226.78 324.57"/><polygon class="cls-3" points="357.15 183.35 552.7 183.35 612.45 264.82 275.67 264.82 357.15 183.35"/><polygon class="cls-5" points="487.51 389.76 373.44 389.76 492.95 264.82 612.45 264.82 487.51 389.76"/></g></svg>