<svg id="Logos" xmlns="http://www.w3.org/2000/svg" xmlns:xlink="http://www.w3.org/1999/xlink" viewBox="0 0 714.33 714.33"><defs><linearGradient id="linear-gradient" x1="-446.78" y1="-1327.56" x2="-441.68" y2="-1322.57" gradientTransform="translate(28794 98315.15) scale(64 73.95)" gradientUnits="userSpaceOnUse"><stop offset="0" stop-color="#2ebbe7"/><stop offset="0.86" stop-color="#0773b6"/><stop offset="1" stop-color="#0067ae"/></linearGradient></defs><rect width="714.33" height="714.33" fill="none"/><path id="HCL_Unica" data-name="HCL Unica" d="M511,117.71H203.26a53.89,53.89,0,0,0-53.37,53.72V469a54.74,54.74,0,0,0,53.37,53.54h115.2c-20.21,35.75-32,56.13-34.55,61.32-4.66,7.77,6.57,16.06,13.3,11.39s44.56-27.28,120.9-72.71h94A54.76,54.76,0,0,0,564.41,469V171.43A53,53,0,0,0,549,133.26,51.82,51.82,0,0,0,511,117.71ZM472.17,339c0,85-44.56,119.52-115,119.52S241.77,423.94,241.77,340.86V191H316V339c0,38.35,12.61,60.45,40.07,60.45s42.83-21.24,42.83-58.55V191h73.41Z" fill="url(#linear-gradient)"/></svg>