<svg id="Logos" xmlns="http://www.w3.org/2000/svg" xmlns:xlink="http://www.w3.org/1999/xlink" viewBox="0 0 714.33 714.33"><defs><linearGradient id="linear-gradient" x1="107.35" y1="2338.77" x2="606.95" y2="2338.77" gradientTransform="matrix(1, 0, 0, -1, 0, 2695.94)" gradientUnits="userSpaceOnUse"><stop offset="0" stop-color="#2ebbe7"/><stop offset="1" stop-color="#0067ae"/></linearGradient></defs><rect width="714.33" height="714.33" fill="none"/><path id="HCL_AppScan" data-name="HCL AppScan" d="M537.34,184.56a240.42,240.42,0,0,0-171.56-77,241,241,0,0,0-180.66,68.66C85.37,270.53,81,427.87,175.33,527.62l1.77,1.85a241.52,241.52,0,0,0,172.27,77.4,241.83,241.83,0,0,0,181.19-70.09,240.54,240.54,0,0,0,76.15-171.92A241.34,241.34,0,0,0,537.34,184.56Zm-33,188.51a149.06,149.06,0,0,1-6.78,28,129.48,129.48,0,0,1-20.15,37.09A171.67,171.67,0,0,1,463.15,454a129.44,129.44,0,0,1-28.71,21c-8,4.28-16.23,8-24.26,12.31a67.42,67.42,0,0,0-32.45,33.88,47.57,47.57,0,0,0-4.28,16.59,110.45,110.45,0,0,0,0,13.37,84.47,84.47,0,0,0,1.25,10.88,64.28,64.28,0,0,1-5.18-4.28c-5.88-5.35-11.94-10.7-17.83-16.58a127.17,127.17,0,0,1-17.83-23.72A119.81,119.81,0,0,1,321.37,482a100,100,0,0,1-2.32-16,179.52,179.52,0,0,1,0-21.76,191.57,191.57,0,0,1,2.32-22.29,197.06,197.06,0,0,1,5.89-22.29c2.49-7.85,5.7-15.7,8.91-23.19s6.07-13,9.46-19.43a351.31,351.31,0,0,1,23.72-38.35l5.7-8.2h0a32.44,32.44,0,0,0-4.1,2.68l-13.73,10.16a97.24,97.24,0,0,0-10.17,8.74,223.58,223.58,0,0,0-18.9,20.15A184.18,184.18,0,0,0,314.77,372a116.12,116.12,0,0,0-12.66,28.89c-2.32,7.67-3.92,15.69-5.53,23.54a218.18,218.18,0,0,0-2.14,41.73v11.95a2.88,2.88,0,0,1,0,1.24,22.66,22.66,0,0,1-1.24,3.21,8.3,8.3,0,0,1-2.86-1.24c-8.38-7.67-16.76-15.16-24.61-23.37a241.89,241.89,0,0,1-17.83-20.68c-6.24-8.56-11.77-17.84-17.84-26.22a154.17,154.17,0,0,1-15.69-34.24A115.43,115.43,0,0,1,208.84,351c0-6.24-1.25-12.48-1.25-17.83A139.11,139.11,0,0,1,214.37,295a153.11,153.11,0,0,1,10.17-24.44,130.52,130.52,0,0,1,15.69-23.72c4.28-4.81,8.56-9.45,13.2-13.91a29.8,29.8,0,0,1,13.91-8.38,25.78,25.78,0,0,1,0,3.93c-1.79,8-4.28,16.05-5.71,24.25a38.3,38.3,0,0,0,1.61,21,30.18,30.18,0,0,0,4.45,7.31,43.53,43.53,0,0,0,39.06,16.77,44,44,0,0,0,27.64-13.91,53.48,53.48,0,0,0,12.31-22.29,83.7,83.7,0,0,0,3.39-15,69.18,69.18,0,0,0,0-17.84,90.67,90.67,0,0,0-4.29-20.68,84.26,84.26,0,0,0-15-25.69,84.91,84.91,0,0,0-9.45-10.7c-5.17-4.63-10.52-8.73-15.87-13.19a11.16,11.16,0,0,1-3.21-3.21H310a159.63,159.63,0,0,1,20.69.89A217.11,217.11,0,0,1,372,163.88a165.21,165.21,0,0,1,30.14,12.48,109.6,109.6,0,0,1,21.4,14.27c4.64,4.28,9.63,8.56,13.91,13.2a121,121,0,0,1,20.15,30.85,118.42,118.42,0,0,1,9.45,30.14c1.07,5.88,1.43,12.12,2.14,17.83a99.35,99.35,0,0,1,0,21.94,128.79,128.79,0,0,1-6.42,30.49,103.81,103.81,0,0,1-16.58,29.78,54.56,54.56,0,0,1-22.83,17.84,24.38,24.38,0,0,0-4.28,2.49s-.89.89,0,1.25,0,.89,1.07.89a69.87,69.87,0,0,0,8.92,0,82.91,82.91,0,0,0,35.67-17.83,86,86,0,0,0,29.06-43,96.13,96.13,0,0,0,3.93-22.83,19.37,19.37,0,0,1,0-2.85h0a31.77,31.77,0,0,1,2.32,6.42A217.17,217.17,0,0,1,504,329.2,156.37,156.37,0,0,1,505.42,347,159.61,159.61,0,0,1,504.35,373.07Z" fill="url(#linear-gradient)"/></svg>