<svg id="Logos" xmlns="http://www.w3.org/2000/svg" xmlns:xlink="http://www.w3.org/1999/xlink" viewBox="0 0 3316.5 544.25"><defs><style>.cls-1,.cls-2,.cls-3,.cls-4{fill-rule:evenodd;}.cls-1{fill:url(#linear-gradient);}.cls-2{fill:url(#linear-gradient-2);}.cls-3{fill:url(#linear-gradient-3);}.cls-4{fill:url(#linear-gradient-4);}.cls-5{fill:#1d3b6c;}</style><linearGradient id="linear-gradient" x1="17.69" y1="425.13" x2="387.13" y2="425.13" gradientUnits="userSpaceOnUse"><stop offset="0" stop-color="#14a1de"/><stop offset="1" stop-color="#01539b"/></linearGradient><linearGradient id="linear-gradient-2" x1="210.47" y1="245.18" x2="87.01" y2="378.74" xlink:href="#linear-gradient"/><linearGradient id="linear-gradient-3" x1="577.81" y1="133.15" x2="208.37" y2="133.15" xlink:href="#linear-gradient"/><linearGradient id="linear-gradient-4" x1="392.03" y1="312.03" x2="501.98" y2="180.02" xlink:href="#linear-gradient"/></defs><polygon class="cls-1" points="297.75 469.82 83.23 469.82 17.69 380.44 387.13 380.44 297.75 469.82"/><polygon class="cls-2" points="154.74 243.39 279.87 243.39 148.78 380.44 17.69 380.44 154.74 243.39"/><polygon class="cls-3" points="297.75 88.46 512.26 88.46 577.81 177.84 208.37 177.84 297.75 88.46"/><polygon class="cls-4" points="440.76 314.89 315.63 314.89 446.72 177.84 577.81 177.84 440.76 314.89"/><path class="cls-5" d="M677.32,158.15h42.8V259.42H836.36V158.15h42.8v243.6h-42.8V299.09H720.12V401.75h-42.8Z"/><path class="cls-5" d="M1054.9,405.93a123.52,123.52,0,0,1-49.42-9.75,121.13,121.13,0,0,1-39.15-26.62,122.52,122.52,0,0,1-25.92-39.84,128.25,128.25,0,0,1-9.4-49.07V280a129.08,129.08,0,0,1,9.22-48.89,123.31,123.31,0,0,1,25.93-40,121.92,121.92,0,0,1,39.67-27.15q23-9.91,50.81-9.91a155.15,155.15,0,0,1,30.45,2.76,124.14,124.14,0,0,1,25.23,7.76,119.13,119.13,0,0,1,21.23,11.9A166.76,166.76,0,0,1,1152,191.57l-27.49,31.66a137.56,137.56,0,0,0-31-21.93q-16.37-8.34-37.24-8.35a76.17,76.17,0,0,0-32.19,6.8,77.86,77.86,0,0,0-25.4,18.49A87,87,0,0,0,982,245.61a91.69,91.69,0,0,0-6.09,33.47v.7a95.39,95.39,0,0,0,5.92,33.65A82.65,82.65,0,0,0,998.52,341a80,80,0,0,0,25.58,18.48,76.17,76.17,0,0,0,32.19,6.8q22.26,0,38.28-8.36a145.32,145.32,0,0,0,31.67-23l27.49,27.84a156.8,156.8,0,0,1-19.66,17.92,130.4,130.4,0,0,1-22.1,13.57A111.5,111.5,0,0,1,1086,403,152,152,0,0,1,1054.9,405.93Z"/><path class="cls-5" d="M1198.62,158.15h42.8V362.78h128.07v39H1198.62Z"/><path class="cls-5" d="M1504.5,158.15h45.59l74.13,115.19,74.12-115.19h45.59v243.6h-42.81V227.06l-76.9,114.84h-1.4l-76.21-114.15v174H1504.5Z"/><path class="cls-5" d="M1854.59,405.58a83.49,83.49,0,0,1-24.71-3.65,61.63,61.63,0,0,1-20.7-10.79,53.39,53.39,0,0,1-14.27-17.75q-5.4-10.61-5.39-24.53v-.7q0-15,5.56-26.1a50.8,50.8,0,0,1,15.49-18.44,69.34,69.34,0,0,1,24-11,122.83,122.83,0,0,1,30.8-3.65,153.82,153.82,0,0,1,27.14,2.09,173.6,173.6,0,0,1,22.28,5.57v-4.53q0-19.83-11.66-29.93t-33.93-10.09a112.56,112.56,0,0,0-27.84,3.13,182.19,182.19,0,0,0-24.71,8.36l-11.14-33.06a182.89,182.89,0,0,1,31.32-11q16-4,37.94-4,41.06,0,60.9,20.53a62.63,62.63,0,0,1,15,24.36q4.88,14.28,4.87,32.37V401.75h-41.06v-23a81,81,0,0,1-24,19Q1875.82,405.58,1854.59,405.58ZM1866.42,375a65.82,65.82,0,0,0,19.49-2.79,45.56,45.56,0,0,0,15.49-8,39.68,39.68,0,0,0,10.26-12.53,34,34,0,0,0,3.83-16V323.1a110.7,110.7,0,0,0-18.62-5.22,120.22,120.22,0,0,0-23.14-2.08q-20.54,0-31.84,8t-11.31,22.62v.7q0,13.23,10.27,20.53T1866.42,375Z"/><path class="cls-5" d="M2006.66,149.8h45.24v40h-45.24ZM2008.4,218h42.11V401.75H2008.4Z"/><path class="cls-5" d="M2105.5,218h42.1V246.2a136.9,136.9,0,0,1,9.92-12.18,56.82,56.82,0,0,1,12.53-10.27,68.15,68.15,0,0,1,15.66-7,65.9,65.9,0,0,1,19.31-2.61q31.32,0,48.37,19.14t17.06,51.16V401.75h-42.11V297.35q0-21.57-10.27-33.23T2189,252.46q-18.45,0-29.92,12t-11.49,33.58v103.7h-42.1Z"/><path class="cls-5" d="M2330.65,254.2h-23.32V219.4h23.32V205.76q0-30.4,15-45.45,14.63-14.69,41.41-14.69a113.3,113.3,0,0,1,19.15,1.4,128.07,128.07,0,0,1,15,3.48V186a110.83,110.83,0,0,0-12-3.3,61.45,61.45,0,0,0-12.7-1.22q-24.36,0-24.36,28.09v10.19h48.72V254.2h-48V401.75h-42.11Z"/><path class="cls-5" d="M2452.1,218h42.11v41.41q8.68-20.88,24.7-33.41t40.37-11.48v44.54h-2.43a68.68,68.68,0,0,0-25.41,4.53,53.09,53.09,0,0,0-19.83,13.57A61.21,61.21,0,0,0,2498.73,300q-4.53,13.76-4.52,31.84v69.95H2452.1Z"/><path class="cls-5" d="M2640,405.58a83.39,83.39,0,0,1-24.71-3.65,61.78,61.78,0,0,1-20.71-10.79,53.48,53.48,0,0,1-14.26-17.75q-5.4-10.61-5.4-24.53v-.7q0-15,5.57-26.1A50.7,50.7,0,0,1,2596,303.62a69.25,69.25,0,0,1,24-11,122.77,122.77,0,0,1,30.8-3.65,153.9,153.9,0,0,1,27.14,2.09,173,173,0,0,1,22.27,5.57v-4.53q0-19.83-11.66-29.93t-33.93-10.09a112.56,112.56,0,0,0-27.84,3.13,182.53,182.53,0,0,0-24.7,8.36L2591,230.54a182.89,182.89,0,0,1,31.32-11q16-4,37.93-4,41.06,0,60.9,20.53a62.65,62.65,0,0,1,15,24.36,100.18,100.18,0,0,1,4.87,32.37V401.75h-41.07v-23a80.72,80.72,0,0,1-24,19Q2661.25,405.58,2640,405.58ZM2651.85,375a65.87,65.87,0,0,0,19.49-2.79,45.41,45.41,0,0,0,15.48-8,39.84,39.84,0,0,0,10.27-12.53,34,34,0,0,0,3.83-16V323.1a111,111,0,0,0-18.62-5.22,120.22,120.22,0,0,0-23.14-2.08q-20.53,0-31.84,8T2616,346.42v.7q0,13.23,10.26,20.53T2651.85,375Z"/><path class="cls-5" d="M2791.4,218h42.1v27.84a119.92,119.92,0,0,1,9.75-11.83,68.68,68.68,0,0,1,12-10.1,58.28,58.28,0,0,1,15.32-7.13,64.57,64.57,0,0,1,19-2.61q19.83,0,33.76,8.87a58.52,58.52,0,0,1,21.23,23.49,91.13,91.13,0,0,1,26.1-23.49q15-8.87,35.84-8.87,30.27,0,47.33,18.27t17.05,52V401.75h-42.11V297.35q0-21.92-9.74-33.41t-27.49-11.48q-17.41,0-28.37,11.66t-11,33.93v103.7h-42.11V297q0-21.57-9.74-33.06t-27.49-11.48q-17.74,0-28.54,12.18t-10.79,33.41v103.7h-42.1Z"/><path class="cls-5" d="M3206.56,405.93a98,98,0,0,1-37.07-7,91.51,91.51,0,0,1-30-19.49,90.51,90.51,0,0,1-20.17-30.1,99.22,99.22,0,0,1-7.37-38.8v-.7a104,104,0,0,1,6.62-37.24,93.68,93.68,0,0,1,18.66-30.45,87.85,87.85,0,0,1,28.42-20.53,86.38,86.38,0,0,1,36.26-7.48q22,0,38.53,8a79.34,79.34,0,0,1,27.55,21.58,94.12,94.12,0,0,1,16.56,31.49,126.38,126.38,0,0,1,5.58,37.76c0,1.86-.06,3.78-.18,5.74s-.29,4-.52,6.09h-135q3.46,22.64,17.92,34.63t35,12q15.66,0,27.15-5.57A88.19,88.19,0,0,0,3257,349.55l24.71,21.93a101.68,101.68,0,0,1-31.5,25Q3232,405.94,3206.56,405.93ZM3248,297a72.5,72.5,0,0,0-4.51-19,48.66,48.66,0,0,0-9.36-15.31,44.63,44.63,0,0,0-14-10.27,43.17,43.17,0,0,0-18.55-3.83q-19.41,0-32.07,13.4T3154,297Z"/></svg>