<svg id="Logos" xmlns="http://www.w3.org/2000/svg" viewBox="0 0 714.33 714.33"><rect width="714.33" height="714.33" fill="none"/><g id="HCL_VersionVault" data-name="HCL VersionVault"><polyline points="473.08 397.3 575.28 206.77 606.62 148.28 533.81 148.28 502.03 148.28 438.46 148.28 406.54 203.34 379.38 250.63 363.42 278.09 347.6 250.63 320.3 203.34 352.08 203.34 375.5 203.34 407.28 148.28 320.3 148.28 288.51 148.28 224.81 148.28 224.81 148.28 256.59 203.34 315.67 305.69 331.63 333.29 363.42 388.35 395.2 333.29 411.16 305.69 470.25 203.34 502.03 203.34 426.38 336.28" fill="#0066b0" fill-rule="evenodd"/><polygon points="363.42 443.4 411.31 360.75 455.77 419.08 363.42 566.05 363.42 443.4" fill="#2ebde9"/><polygon points="107.68 148.28 191.68 148.28 363.42 443.4 363.42 566.05 107.68 148.28" fill="#0786cf"/></g></svg>